<svg xmlns="http://www.w3.org/2000/svg" xmlns:xlink="http://www.w3.org/1999/xlink" width="500" zoomAndPan="magnify" viewBox="0 0 375 374.999991" height="500" preserveAspectRatio="xMidYMid meet" version="1.0"><defs><clipPath id="a3184b38a8"><path d="M 174.988281 42.253906 L 200.011719 42.253906 L 200.011719 332.746094 L 174.988281 332.746094 Z M 174.988281 42.253906 " clip-rule="nonzero"/></clipPath><clipPath id="08d403ff7a"><path d="M 0.988281 0.253906 L 26.011719 0.253906 L 26.011719 290.746094 L 0.988281 290.746094 Z M 0.988281 0.253906 " clip-rule="nonzero"/></clipPath><clipPath id="1d3347c02c"><rect x="0" width="27" y="0" height="291"/></clipPath><clipPath id="1f6f9f65f0"><path d="M 30.652344 37.5 L 165.097656 37.5 L 165.097656 181.921875 L 30.652344 181.921875 Z M 30.652344 37.5 " clip-rule="nonzero"/></clipPath><clipPath id="c715462169"><path d="M 70.988281 37.5 C 122.84375 37.5 165.097656 82.863281 165.097656 138.535156 L 165.097656 181.832031 L 124.765625 181.832031 C 72.910156 181.832031 30.652344 136.472656 30.652344 80.800781 L 30.652344 37.5 Z M 70.988281 37.5 " clip-rule="nonzero"/></clipPath><clipPath id="19cc11424e"><path d="M 0.652344 0.5 L 135.097656 0.5 L 135.097656 144.921875 L 0.652344 144.921875 Z M 0.652344 0.5 " clip-rule="nonzero"/></clipPath><clipPath id="10aed25174"><path d="M 40.988281 0.5 C 92.84375 0.5 135.097656 45.863281 135.097656 101.535156 L 135.097656 144.832031 L 94.765625 144.832031 C 42.910156 144.832031 0.652344 99.472656 0.652344 43.800781 L 0.652344 0.5 Z M 40.988281 0.5 " clip-rule="nonzero"/></clipPath><clipPath id="b61ae43dbb"><rect x="0" width="136" y="0" height="145"/></clipPath><clipPath id="d3ca6a7d8b"><path d="M 209.824219 193.167969 L 343.507812 193.167969 L 343.507812 337.816406 L 209.824219 337.816406 Z M 209.824219 193.167969 " clip-rule="nonzero"/></clipPath><clipPath id="b3c85eadbb"><path d="M 249.929688 193.167969 C 301.492188 193.167969 343.507812 238.527344 343.507812 294.199219 L 343.507812 337.5 L 303.402344 337.5 C 251.839844 337.5 209.824219 292.136719 209.824219 236.464844 L 209.824219 193.167969 Z M 249.929688 193.167969 " clip-rule="nonzero"/></clipPath><clipPath id="d087fcee41"><path d="M 0.824219 0.167969 L 134.507812 0.167969 L 134.507812 144.679688 L 0.824219 144.679688 Z M 0.824219 0.167969 " clip-rule="nonzero"/></clipPath><clipPath id="e0e082703e"><path d="M 40.929688 0.167969 C 92.492188 0.167969 134.507812 45.527344 134.507812 101.199219 L 134.507812 144.5 L 94.402344 144.5 C 42.839844 144.5 0.824219 99.136719 0.824219 43.464844 L 0.824219 0.167969 Z M 40.929688 0.167969 " clip-rule="nonzero"/></clipPath><clipPath id="2d5fc6328f"><rect x="0" width="135" y="0" height="145"/></clipPath><clipPath id="54ef63327a"><path d="M 165.097656 42.253906 L 174.910156 42.253906 L 174.910156 332.746094 L 165.097656 332.746094 Z M 165.097656 42.253906 " clip-rule="nonzero"/></clipPath><clipPath id="2c824275b5"><path d="M 0.0976562 0.253906 L 9.910156 0.253906 L 9.910156 290.746094 L 0.0976562 290.746094 Z M 0.0976562 0.253906 " clip-rule="nonzero"/></clipPath><clipPath id="bbc0ba1b7b"><rect x="0" width="10" y="0" height="291"/></clipPath><clipPath id="53306f799f"><path d="M 200.011719 43.167969 L 209.824219 43.167969 L 209.824219 333.660156 L 200.011719 333.660156 Z M 200.011719 43.167969 " clip-rule="nonzero"/></clipPath><clipPath id="f6ee4f10ad"><path d="M 0.0117188 0.167969 L 9.824219 0.167969 L 9.824219 290.660156 L 0.0117188 290.660156 Z M 0.0117188 0.167969 " clip-rule="nonzero"/></clipPath><clipPath id="f93070b45d"><rect x="0" width="10" y="0" height="291"/></clipPath></defs><rect x="-37.5" width="450" fill="#ffffff" y="-37.499999" height="449.999989" fill-opacity="1"/><rect x="-37.5" width="450" fill="#ffffff" y="-37.499999" height="449.999989" fill-opacity="1"/><g clip-path="url(#a3184b38a8)"><g transform="matrix(1, 0, 0, 1, 174, 42)"><g clip-path="url(#1d3347c02c)"><g clip-path="url(#08d403ff7a)"><path fill="#7ed957" d="M 0.988281 0.253906 L 26.011719 0.253906 L 26.011719 290.78125 L 0.988281 290.78125 Z M 0.988281 0.253906 " fill-opacity="1" fill-rule="nonzero"/></g></g></g></g><g clip-path="url(#1f6f9f65f0)"><g clip-path="url(#c715462169)"><g transform="matrix(1, 0, 0, 1, 30, 37)"><g clip-path="url(#b61ae43dbb)"><g clip-path="url(#19cc11424e)"><g clip-path="url(#10aed25174)"><path fill="#7ed957" d="M 0.652344 0.5 L 135.097656 0.5 L 135.097656 144.921875 L 0.652344 144.921875 Z M 0.652344 0.5 " fill-opacity="1" fill-rule="nonzero"/></g></g></g></g></g></g><g clip-path="url(#d3ca6a7d8b)"><g clip-path="url(#b3c85eadbb)"><g transform="matrix(1, 0, 0, 1, 209, 193)"><g clip-path="url(#2d5fc6328f)"><g clip-path="url(#d087fcee41)"><g clip-path="url(#e0e082703e)"><path fill="#7ed957" d="M 0.824219 0.167969 L 134.507812 0.167969 L 134.507812 144.296875 L 0.824219 144.296875 Z M 0.824219 0.167969 " fill-opacity="1" fill-rule="nonzero"/></g></g></g></g></g></g><g clip-path="url(#54ef63327a)"><g transform="matrix(1, 0, 0, 1, 165, 42)"><g clip-path="url(#bbc0ba1b7b)"><g clip-path="url(#2c824275b5)"><path fill="#ffffff" d="M 0.0976562 0.253906 L 9.910156 0.253906 L 9.910156 290.753906 L 0.0976562 290.753906 Z M 0.0976562 0.253906 " fill-opacity="1" fill-rule="nonzero"/></g></g></g></g><g clip-path="url(#53306f799f)"><g transform="matrix(1, 0, 0, 1, 200, 43)"><g clip-path="url(#f93070b45d)"><g clip-path="url(#f6ee4f10ad)"><path fill="#ffffff" d="M 0.0117188 0.167969 L 9.824219 0.167969 L 9.824219 290.667969 L 0.0117188 290.667969 Z M 0.0117188 0.167969 " fill-opacity="1" fill-rule="nonzero"/></g></g></g></g></svg>