<svg xmlns="http://www.w3.org/2000/svg" xmlns:xlink="http://www.w3.org/1999/xlink" width="500" zoomAndPan="magnify" viewBox="0 0 375 374.999991" height="500" preserveAspectRatio="xMidYMid meet" version="1.0"><defs><clipPath id="f33395ec49"><path d="M 174.988281 42.253906 L 200.011719 42.253906 L 200.011719 332.746094 L 174.988281 332.746094 Z M 174.988281 42.253906 " clip-rule="nonzero"/></clipPath><clipPath id="4777ed2123"><path d="M 0.988281 0.253906 L 26.011719 0.253906 L 26.011719 290.746094 L 0.988281 290.746094 Z M 0.988281 0.253906 " clip-rule="nonzero"/></clipPath><clipPath id="e358f2cc87"><rect x="0" width="27" y="0" height="291"/></clipPath><clipPath id="78ebfb3b5e"><path d="M 30.652344 37.5 L 165.097656 37.5 L 165.097656 181.921875 L 30.652344 181.921875 Z M 30.652344 37.5 " clip-rule="nonzero"/></clipPath><clipPath id="7fe372a3c9"><path d="M 70.988281 37.5 C 122.84375 37.5 165.097656 82.863281 165.097656 138.535156 L 165.097656 181.832031 L 124.765625 181.832031 C 72.910156 181.832031 30.652344 136.472656 30.652344 80.800781 L 30.652344 37.5 Z M 70.988281 37.5 " clip-rule="nonzero"/></clipPath><clipPath id="4cb638c10a"><path d="M 0.652344 0.5 L 135.097656 0.5 L 135.097656 144.921875 L 0.652344 144.921875 Z M 0.652344 0.5 " clip-rule="nonzero"/></clipPath><clipPath id="61a0266aea"><path d="M 40.988281 0.5 C 92.84375 0.5 135.097656 45.863281 135.097656 101.535156 L 135.097656 144.832031 L 94.765625 144.832031 C 42.910156 144.832031 0.652344 99.472656 0.652344 43.800781 L 0.652344 0.5 Z M 40.988281 0.5 " clip-rule="nonzero"/></clipPath><clipPath id="05fb31e7a8"><rect x="0" width="136" y="0" height="145"/></clipPath><clipPath id="d9db01bf8f"><path d="M 209.824219 193.167969 L 343.507812 193.167969 L 343.507812 337.816406 L 209.824219 337.816406 Z M 209.824219 193.167969 " clip-rule="nonzero"/></clipPath><clipPath id="2f92fcf6d6"><path d="M 249.929688 193.167969 C 301.492188 193.167969 343.507812 238.527344 343.507812 294.199219 L 343.507812 337.5 L 303.402344 337.5 C 251.839844 337.5 209.824219 292.136719 209.824219 236.464844 L 209.824219 193.167969 Z M 249.929688 193.167969 " clip-rule="nonzero"/></clipPath><clipPath id="f92595e880"><path d="M 0.824219 0.167969 L 134.507812 0.167969 L 134.507812 144.679688 L 0.824219 144.679688 Z M 0.824219 0.167969 " clip-rule="nonzero"/></clipPath><clipPath id="5a5d2c0d0a"><path d="M 40.929688 0.167969 C 92.492188 0.167969 134.507812 45.527344 134.507812 101.199219 L 134.507812 144.5 L 94.402344 144.5 C 42.839844 144.5 0.824219 99.136719 0.824219 43.464844 L 0.824219 0.167969 Z M 40.929688 0.167969 " clip-rule="nonzero"/></clipPath><clipPath id="852258d2fa"><rect x="0" width="135" y="0" height="145"/></clipPath></defs><rect x="-37.5" width="450" fill="#ffffff" y="-37.499999" height="449.999989" fill-opacity="1"/><rect x="-37.5" width="450" fill="#ffffff" y="-37.499999" height="449.999989" fill-opacity="1"/><g clip-path="url(#f33395ec49)"><g transform="matrix(1, 0, 0, 1, 174, 42)"><g clip-path="url(#e358f2cc87)"><g clip-path="url(#4777ed2123)"><path fill="#000000" d="M 0.988281 0.253906 L 26.011719 0.253906 L 26.011719 290.78125 L 0.988281 290.78125 Z M 0.988281 0.253906 " fill-opacity="1" fill-rule="nonzero"/></g></g></g></g><g clip-path="url(#78ebfb3b5e)"><g clip-path="url(#7fe372a3c9)"><g transform="matrix(1, 0, 0, 1, 30, 37)"><g clip-path="url(#05fb31e7a8)"><g clip-path="url(#4cb638c10a)"><g clip-path="url(#61a0266aea)"><path fill="#000000" d="M 0.652344 0.5 L 135.097656 0.5 L 135.097656 144.921875 L 0.652344 144.921875 Z M 0.652344 0.5 " fill-opacity="1" fill-rule="nonzero"/></g></g></g></g></g></g><g clip-path="url(#d9db01bf8f)"><g clip-path="url(#2f92fcf6d6)"><g transform="matrix(1, 0, 0, 1, 209, 193)"><g clip-path="url(#852258d2fa)"><g clip-path="url(#f92595e880)"><g clip-path="url(#5a5d2c0d0a)"><path fill="#000000" d="M 0.824219 0.167969 L 134.507812 0.167969 L 134.507812 144.296875 L 0.824219 144.296875 Z M 0.824219 0.167969 " fill-opacity="1" fill-rule="nonzero"/></g></g></g></g></g></g></svg>